<?xml version="1.0" encoding="UTF-8"?>
<!DOCTYPE svg PUBLIC "-//W3C//DTD SVG 1.1//EN" "http://www.w3.org/Graphics/SVG/1.1/DTD/svg11.dtd">
<svg xmlns="http://www.w3.org/2000/svg" version="1.1" width="512px" height="512px" style="shape-rendering:geometricPrecision; text-rendering:geometricPrecision; image-rendering:optimizeQuality; fill-rule:evenodd; clip-rule:evenodd" xmlns:xlink="http://www.w3.org/1999/xlink">
<g><path style="opacity:0.988" fill="#000000" d="M 141.5,-0.5 C 208.833,-0.5 276.167,-0.5 343.5,-0.5C 354.483,2.98437 361.65,10.3177 365,21.5C 365.5,49.498 365.667,77.498 365.5,105.5C 387.503,105.333 409.503,105.5 431.5,106C 452.667,111.167 465.833,124.333 471,145.5C 471.5,175.498 471.667,205.498 471.5,235.5C 492.346,236.245 505.679,246.578 511.5,266.5C 511.5,302.167 511.5,337.833 511.5,373.5C 504.174,391.173 490.84,398.506 471.5,395.5C 471.667,407.505 471.5,419.505 471,431.5C 466.447,451.053 454.613,463.886 435.5,470C 425.232,471.399 414.898,471.899 404.5,471.5C 399.583,492.75 386.583,506.083 365.5,511.5C 256.833,511.5 148.167,511.5 39.5,511.5C 18.5,505.833 5.16667,492.5 -0.5,471.5C -0.5,362.833 -0.5,254.167 -0.5,145.5C 8.60661,116.255 28.6066,102.921 59.5,105.5C 56.6519,90.8641 60.9853,79.0308 72.5,70C 75.3821,68.3921 78.3821,67.0587 81.5,66C 94.1623,65.5001 106.829,65.3334 119.5,65.5C 119.333,50.8295 119.5,36.1629 120,21.5C 123.35,10.3177 130.517,2.98437 141.5,-0.5 Z M 149.5,19.5 C 211.501,19.3333 273.501,19.5 335.5,20C 341.333,20.5 344.5,23.6667 345,29.5C 345.5,81.4989 345.667,133.499 345.5,185.5C 330.167,185.5 314.833,185.5 299.5,185.5C 299.667,152.832 299.5,120.165 299,87.5C 295.833,76.3333 288.667,69.1667 277.5,66C 231.501,65.5 185.501,65.3333 139.5,65.5C 139.333,53.4954 139.5,41.4954 140,29.5C 140.679,23.6569 143.846,20.3236 149.5,19.5 Z M 89.5,85.5 C 112.833,85.5 136.167,85.5 159.5,85.5C 159.5,118.833 159.5,152.167 159.5,185.5C 132.833,185.5 106.167,185.5 79.5,185.5C 79.3334,155.498 79.5,125.498 80,95.5C 80.679,89.6569 83.8457,86.3236 89.5,85.5 Z M 179.5,85.5 C 192.833,85.5 206.167,85.5 219.5,85.5C 219.5,118.833 219.5,152.167 219.5,185.5C 206.167,185.5 192.833,185.5 179.5,185.5C 179.5,152.167 179.5,118.833 179.5,85.5 Z M 239.5,85.5 C 249.506,85.3335 259.506,85.5002 269.5,86C 273.438,86.2141 276.272,88.0474 278,91.5C 279.47,122.784 279.97,154.117 279.5,185.5C 266.167,185.5 252.833,185.5 239.5,185.5C 239.5,152.167 239.5,118.833 239.5,85.5 Z M 49.5,125.5 C 52.8333,125.5 56.1667,125.5 59.5,125.5C 59.5,145.5 59.5,165.5 59.5,185.5C 45.4997,186.743 33.9997,182.076 25,171.5C 15.0779,146.338 23.2446,131.005 49.5,125.5 Z M 365.5,125.5 C 386.536,125.084 407.536,125.584 428.5,127C 442.32,131.458 449.82,140.958 451,155.5C 451.5,202.165 451.667,248.832 451.5,295.5C 436.167,295.5 420.833,295.5 405.5,295.5C 405.667,272.164 405.5,248.831 405,225.5C 399.902,204.234 386.735,191.234 365.5,186.5C 365.5,166.167 365.5,145.833 365.5,125.5 Z M 19.5,196.5 C 26.3711,200.404 33.7044,203.237 41.5,205C 148.526,205.015 255.526,205.682 362.5,207C 373.667,210.167 380.833,217.333 384,228.5C 385.422,250.798 385.922,273.132 385.5,295.5C 358.436,295.026 331.436,295.526 304.5,297C 296,300.167 290.167,306 287,314.5C 285.869,324.764 285.369,335.097 285.5,345.5C 285.667,354.833 285.833,364.167 286,373.5C 289.167,384.667 296.333,391.833 307.5,395C 333.498,395.5 359.498,395.667 385.5,395.5C 385.929,419.868 385.429,444.201 384,468.5C 380.833,479.667 373.667,486.833 362.5,490C 258.192,491.651 153.859,491.985 49.5,491C 31.6667,489.167 21.8333,479.333 20,461.5C 19.5,373.167 19.3333,284.834 19.5,196.5 Z M 471.5,256.5 C 486.371,258.204 492.538,266.538 490,281.5C 486.856,290.154 480.689,294.487 471.5,294.5C 471.5,281.833 471.5,269.167 471.5,256.5 Z M 489.5,311.5 C 490.832,320.141 491.498,329.141 491.5,338.5C 491.333,347.5 491.167,356.5 491,365.5C 490.386,369.115 488.553,371.949 485.5,374C 428.878,375.65 372.212,375.984 315.5,375C 311.562,374.786 308.728,372.953 307,369.5C 305.401,354.888 305.068,340.222 306,325.5C 306.214,321.562 308.047,318.728 311.5,317C 367.788,315.683 424.122,315.016 480.5,315C 483.865,314.495 486.865,313.328 489.5,311.5 Z M 405.5,395.5 C 420.833,395.5 436.167,395.5 451.5,395.5C 451.819,406.544 451.319,417.544 450,428.5C 446.833,439.667 439.667,446.833 428.5,450C 420.881,451.205 413.214,451.705 405.5,451.5C 405.5,432.833 405.5,414.167 405.5,395.5 Z"/></g>
<g><path style="opacity:0.972" fill="#000000" d="M 114.5,105.5 C 120.52,104.22 125.353,105.887 129,110.5C 129.667,127.167 129.667,143.833 129,160.5C 125.345,165.275 120.512,166.775 114.5,165C 112.667,163.833 111.167,162.333 110,160.5C 109.333,143.833 109.333,127.167 110,110.5C 111.366,108.638 112.866,106.972 114.5,105.5 Z"/></g>
<g><path style="opacity:0.948" fill="#000000" d="M 194.5,265.5 C 200.52,264.22 205.353,265.887 209,270.5C 209.333,275.833 209.667,281.167 210,286.5C 216.169,288.92 221.502,292.587 226,297.5C 229.553,306.729 226.553,312.396 217,314.5C 212.037,312.879 207.537,310.379 203.5,307C 193.333,305.167 189.167,309.333 191,319.5C 191.833,321.667 193.333,323.167 195.5,324C 220.442,325.602 231.609,338.768 229,363.5C 226.162,373.671 219.828,380.671 210,384.5C 209.667,389.833 209.333,395.167 209,400.5C 205.345,405.275 200.512,406.775 194.5,405C 192.667,403.833 191.167,402.333 190,400.5C 189.667,395.167 189.333,389.833 189,384.5C 181.283,381.792 174.949,377.126 170,370.5C 166.428,361.309 169.428,355.642 179,353.5C 181.245,354.137 183.412,354.97 185.5,356C 189.863,362.518 195.863,365.184 203.5,364C 209.329,359.367 209.996,354.033 205.5,348C 199.939,346.262 194.272,344.929 188.5,344C 171.948,335.721 166.115,322.554 171,304.5C 174.333,295.833 180.333,289.833 189,286.5C 189.333,281.167 189.667,275.833 190,270.5C 191.366,268.638 192.866,266.972 194.5,265.5 Z"/></g>
<g><path style="opacity:0.908" fill="#000000" d="M 330.5,335.5 C 342.324,333.824 347.158,338.824 345,350.5C 341.345,355.275 336.512,356.775 330.5,355C 325.725,351.345 324.225,346.512 326,340.5C 327.366,338.638 328.866,336.972 330.5,335.5 Z"/></g>
<g><path style="opacity:0.975" fill="#000000" d="M 370.5,335.5 C 389.17,335.333 407.836,335.5 426.5,336C 431.275,339.655 432.775,344.488 431,350.5C 429.833,352.333 428.333,353.833 426.5,355C 407.833,355.667 389.167,355.667 370.5,355C 365.725,351.345 364.225,346.512 366,340.5C 367.366,338.638 368.866,336.972 370.5,335.5 Z"/></g>
</svg>
