/<xml version="1.0" standalone="no"/>

<svg version="1.0" xmlns="http://www.w3.org/2000/svg"
 width="1280.000000pt" height="1280.000000pt" viewBox="0 0 1280.000000 1280.000000"
 preserveAspectRatio="xMidYMid meet">
<g transform="translate(0.000000,1280.000000) scale(0.100000,-0.100000)"
fill="#000000" stroke="none">
<path d="M6150 12790 c-41 -5 -147 -13 -235 -20 -1963 -142 -3768 -1206 -4858
-2865 -590 -898 -950 -1955 -1027 -3015 -6 -85 -15 -199 -21 -253 -12 -125
-12 -349 0 -474 6 -54 15 -168 21 -253 117 -1619 880 -3169 2095 -4259 1058
-949 2393 -1520 3785 -1621 85 -6 199 -15 253 -21 125 -12 349 -12 474 0 54 6
168 15 253 21 1726 125 3353 975 4461 2330 821 1004 1326 2268 1419 3550 6 85
15 199 21 253 5 54 9 160 9 237 0 77 -4 183 -9 237 -6 54 -15 168 -21 253
-132 1827 -1075 3535 -2560 4640 -963 717 -2135 1154 -3320 1240 -85 6 -199
15 -253 21 -113 10 -377 10 -487 -1z m625 -1341 c855 -62 1738 -368 2457 -850
145 -97 238 -169 238 -182 0 -16 -7071 -7087 -7087 -7087 -7 0 -36 33 -66 73
-363 491 -657 1114 -817 1728 -114 439 -160 811 -161 1280 -1 565 78 1045 260
1589 357 1063 1037 1966 1942 2577 404 273 805 472 1259 624 656 219 1285 299
1975 248z m3708 -2051 c363 -492 657 -1115 817 -1729 114 -439 160 -811 161
-1280 1 -565 -78 -1045 -260 -1589 -322 -960 -908 -1790 -1692 -2397 -687
-531 -1529 -889 -2394 -1017 -312 -47 -798 -62 -1104 -36 -881 76 -1729 371
-2443 851 -145 97 -238 169 -238 182 0 16 7071 7087 7087 7087 7 0 36 -33 66
-72z"/>
</g>
</svg>
