<?xml version="1.0" standalone="no"?>
<!DOCTYPE svg PUBLIC "-//W3C//DTD SVG 20010904//EN"
 "http://www.w3.org/TR/2001/REC-SVG-20010904/DTD/svg10.dtd">
<svg version="1.0" xmlns="http://www.w3.org/2000/svg"
 width="1280.000000pt" height="1209.000000pt" viewBox="0 0 1280.000000 1209.000000"
 preserveAspectRatio="xMidYMid meet">
<metadata>
Created by potrace 1.15, written by Peter Selinger 2001-2017
</metadata>
<g transform="translate(0.000000,1209.000000) scale(0.100000,-0.100000)"
fill="#000000" stroke="none">
<path d="M2488 12076 c-26 -8 -67 -25 -90 -39 -24 -14 -559 -542 -1190 -1174
-1299 -1300 -1202 -1190 -1202 -1358 -1 -81 3 -96 31 -155 20 -41 86 -129 175
-235 79 -93 575 -687 1102 -1320 527 -632 973 -1165 990 -1183 42 -45 151 -98
220 -106 70 -9 155 7 219 42 66 35 140 119 169 190 l23 57 5 995 5 995 4695 5
c3898 4 4702 7 4735 19 151 50 293 169 358 299 151 304 30 659 -274 802 -139
64 253 60 -4856 60 l-4653 0 -2 928 c-3 920 -3 927 -24 972 -33 71 -107 145
-178 180 -75 37 -182 48 -258 26z"/>
<path d="M10120 5574 c-105 -28 -186 -94 -237 -194 l-28 -55 -3 -927 -2 -928
-4643 0 c-3963 -1 -4654 -3 -4722 -15 -211 -37 -396 -203 -461 -412 -25 -81
-29 -200 -10 -286 45 -200 180 -357 373 -435 l68 -27 4700 -5 4700 -5 5 -995
5 -995 23 -57 c69 -172 267 -272 438 -224 121 35 118 31 791 838 345 414 850
1019 1121 1343 559 669 557 667 557 805 -1 64 -6 100 -24 145 -22 57 -73 110
-1170 1208 -630 631 -1166 1161 -1191 1177 -50 32 -145 60 -200 59 -19 0 -60
-7 -90 -15z"/>
</g>
</svg>
