
<svg version="1.0" xmlns="http://www.w3.org/2000/svg"
 width="225.000000pt" height="225.000000pt" viewBox="0 0 225.000000 225.000000"
 preserveAspectRatio="xMidYMid meet">

<g transform="translate(0.000000,225.000000) scale(0.100000,-0.100000)"
fill="#000000" stroke="none">
<path d="M1031 2065 c-24 -14 -50 -33 -58 -43 -29 -38 -937 -1548 -955 -1590
-37 -82 -7 -182 71 -237 l43 -30 993 0 993 0 43 30 c78 55 108 154 71 238 -11
25 -134 234 -273 464 -139 230 -346 573 -460 763 -114 190 -217 355 -229 367
-60 65 -163 81 -239 38z m127 -132 c35 -31 942 -1548 942 -1576 0 -60 43 -57
-975 -57 -1018 0 -975 -3 -975 57 0 28 907 1545 942 1576 11 9 26 17 33 17 7
0 22 -8 33 -17z"/>
<path d="M1068 1474 c-15 -8 -31 -27 -35 -42 -11 -44 13 -600 27 -617 19 -23
74 -29 107 -11 29 14 31 19 36 93 11 136 20 510 13 537 -12 49 -92 71 -148 40z"/>
<path d="M1082 685 c-44 -19 -68 -73 -52 -121 24 -72 102 -96 159 -48 59 50
46 140 -24 170 -41 17 -42 17 -83 -1z"/>
</g>
</svg>
