<?xml version="1.0" standalone="no"?>
<!DOCTYPE svg PUBLIC "-//W3C//DTD SVG 20010904//EN"
 "http://www.w3.org/TR/2001/REC-SVG-20010904/DTD/svg10.dtd">
<svg version="1.0" xmlns="http://www.w3.org/2000/svg"
 width="1024.000000pt" height="1024.000000pt" viewBox="0 0 1024.000000 1024.000000"
 preserveAspectRatio="xMidYMid meet">

<g transform="translate(0.000000,1024.000000) scale(0.100000,-0.100000)"
fill="#000000" stroke="none">
<path d="M2126 5559 c-62 -15 -153 -68 -197 -116 -88 -95 -133 -254 -112 -390
19 -119 48 -180 122 -254 92 -92 148 -114 296 -114 99 0 116 3 167 27 32 15
80 48 107 73 52 49 111 150 111 192 0 23 -1 23 -117 23 l-118 0 -22 -34 c-56
-87 -202 -89 -274 -3 -51 60 -61 204 -20 285 63 123 206 139 292 33 l33 -42
110 3 c106 3 111 4 114 25 2 12 -11 51 -27 87 -78 162 -275 249 -465 205z"/>
<path d="M2998 5551 c-75 -24 -115 -50 -177 -116 -203 -215 -136 -594 128
-719 62 -29 73 -31 181 -31 110 0 119 2 181 32 83 41 159 121 202 210 31 66
32 72 32 198 0 125 -1 132 -32 197 -36 76 -105 156 -167 192 -97 56 -239 72
-348 37z m244 -233 c55 -42 78 -99 78 -193 0 -139 -58 -215 -171 -223 -73 -5
-99 1 -139 34 -53 45 -74 98 -74 189 0 86 19 139 66 181 42 39 61 45 134 42
59 -3 77 -8 106 -30z"/>
<path d="M3802 5551 c-115 -40 -175 -124 -175 -246 0 -141 58 -201 261 -270
46 -16 94 -39 108 -51 61 -57 -5 -138 -85 -104 -28 11 -51 46 -51 76 0 12 -19
14 -117 12 l-118 -3 3 -45 c6 -91 66 -170 161 -213 70 -32 218 -36 292 -8 143
54 219 234 154 361 -27 52 -100 105 -192 140 -122 46 -160 67 -174 91 -28 52
31 104 88 77 15 -7 34 -28 42 -46 l15 -33 115 3 116 3 -3 35 c-7 98 -83 191
-182 223 -70 23 -190 22 -258 -2z"/>
<path d="M7707 5559 c-240 -57 -377 -343 -288 -601 63 -185 221 -287 424 -276
150 8 278 92 344 225 26 53 28 67 28 168 l0 110 -225 0 -225 0 0 -85 0 -85
118 -3 c64 -1 117 -5 117 -9 0 -20 -60 -78 -98 -95 -81 -36 -191 -6 -239 65
-53 78 -54 209 -2 292 63 99 207 114 277 29 l29 -35 114 3 c133 3 135 6 96 92
-47 102 -131 172 -243 201 -63 16 -167 18 -227 4z"/>
<path d="M1212 5548 c-17 -17 -17 -839 0 -856 19 -19 491 -17 507 2 8 9 11 45
9 98 l-3 83 -147 3 -148 3 0 74 0 74 128 3 127 3 3 93 3 92 -131 0 -130 0 0
70 0 70 139 0 c107 0 141 3 150 14 8 9 11 45 9 98 l-3 83 -250 3 c-187 2 -254
-1 -263 -10z"/>
<path d="M4310 5541 c0 -11 61 -142 135 -292 l134 -272 3 -146 3 -146 99 -3
c64 -2 103 1 112 9 11 9 14 44 14 153 l0 141 136 276 c75 153 133 282 130 288
-5 7 -49 11 -122 11 l-115 0 -28 -62 c-16 -35 -47 -107 -71 -161 -23 -54 -45
-95 -49 -92 -3 4 -36 75 -72 158 l-66 152 -122 3 c-114 2 -121 2 -121 -17z"/>
<path d="M6042 5548 c-17 -17 -17 -839 0 -856 19 -19 491 -17 507 2 8 9 11 45
9 98 l-3 83 -147 3 -148 3 0 74 0 74 128 3 127 3 3 93 3 92 -131 0 -130 0 0
70 0 70 139 0 c107 0 141 3 150 14 8 9 11 45 9 98 l-3 83 -250 3 c-187 2 -254
-1 -263 -10z"/>
<path d="M6673 5549 c-20 -20 -19 -842 1 -858 9 -8 48 -11 112 -9 l99 3 3 158
c2 116 6 157 15 157 6 0 49 -72 95 -160 l83 -160 115 0 c92 0 116 3 120 15 3
8 -33 85 -81 172 -48 87 -82 159 -76 161 63 21 135 111 151 188 29 138 -31
260 -154 316 -47 21 -67 23 -261 26 -159 2 -213 0 -222 -9z m370 -200 c26 -12
47 -47 47 -79 0 -32 -21 -67 -47 -79 -13 -6 -53 -11 -88 -11 l-65 0 0 90 0 90
65 0 c35 0 75 -5 88 -11z"/>
<path d="M8260 5541 c0 -11 61 -142 135 -292 l134 -272 3 -146 3 -146 99 -3
c64 -2 103 1 112 9 11 9 14 44 14 153 l0 141 136 276 c75 153 133 282 130 288
-5 7 -49 11 -122 11 l-115 0 -28 -62 c-16 -35 -47 -107 -71 -161 -23 -54 -45
-95 -49 -92 -3 4 -36 75 -72 158 l-66 152 -122 3 c-114 2 -121 2 -121 -17z"/>
<path d="M5170 5120 l0 -420 100 0 100 0 0 257 0 257 161 -257 160 -257 100 0
99 0 0 420 0 420 -100 0 -100 0 0 -257 0 -257 -161 257 -160 257 -100 0 -99 0
0 -420z"/>
</g>
</svg>
