<?xml version="1.0" standalone="no"?>
<!DOCTYPE svg PUBLIC "-//W3C//DTD SVG 20010904//EN"
 "http://www.w3.org/TR/2001/REC-SVG-20010904/DTD/svg10.dtd">
<svg version="1.0" xmlns="http://www.w3.org/2000/svg"
 width="1024.000000pt" height="1024.000000pt" viewBox="0 0 1024.000000 1024.000000"
 preserveAspectRatio="xMidYMid meet">

<g transform="translate(0.000000,1024.000000) scale(0.100000,-0.100000)"
fill="#000000" stroke="none">
<path d="M3952 7648 c-19 -19 -14 -55 8 -61 22 -6 50 16 50 38 0 8 -9 19 -19
25 -24 13 -24 13 -39 -2z"/>
<path d="M4993 7260 c-394 -27 -789 -160 -1105 -371 -267 -179 -456 -373 -641
-655 -143 -218 -209 -367 -272 -609 -64 -245 -68 -281 -70 -623 -1 -173 1
-308 5 -302 4 7 9 -5 12 -30 2 -23 -1 -44 -6 -47 -5 -3 -6 -1 -3 4 4 6 0 14
-9 17 -22 8 -26 8 -19 -3 3 -5 -2 -16 -10 -24 -8 -9 -15 -27 -15 -41 0 -57
-18 -21 -34 69 -39 222 -43 488 -10 735 45 330 177 692 341 933 98 144 142
201 231 298 23 25 42 49 42 53 0 9 -88 -82 -109 -112 -15 -21 -51 -19 -51 4 0
22 -13 16 -34 -15 -11 -16 -25 -28 -30 -27 -6 2 -8 1 -3 -1 4 -3 7 -12 7 -21
0 -9 5 -24 10 -32 8 -11 9 -9 5 11 -4 18 0 32 15 50 15 17 20 19 16 7 -3 -10
-1 -18 4 -18 16 0 12 -15 -10 -40 -11 -13 -20 -27 -20 -32 0 -14 -38 29 -45
51 -3 12 -13 22 -21 22 -8 1 -19 2 -26 3 -17 2 -21 23 -6 33 7 4 26 8 42 8 18
0 31 6 33 15 4 13 3 13 -6 0 -9 -13 -11 -13 -11 0 0 9 5 21 12 28 9 9 9 15 -1
25 -10 10 -11 9 -6 -4 4 -10 2 -20 -4 -24 -6 -3 -11 -1 -11 6 0 6 -9 1 -20
-12 -10 -13 -19 -19 -20 -14 0 11 75 106 93 117 6 4 9 10 5 13 -6 6 -94 -94
-126 -144 -9 -14 -22 -32 -29 -39 -16 -16 -16 -29 -3 -37 6 -3 7 1 4 9 -3 9
-1 16 5 16 6 0 11 -7 11 -15 0 -8 5 -15 10 -15 7 0 7 7 0 21 -7 11 -9 23 -7
26 9 8 28 -37 21 -48 -3 -6 -12 -8 -20 -5 -7 3 -18 -3 -24 -12 -11 -16 -11
-16 -6 1 6 18 -2 21 -22 9 -21 -14 -82 -114 -75 -125 3 -6 1 -7 -5 -3 -13 8
-116 -185 -178 -335 -90 -220 -146 -429 -175 -659 -17 -128 -17 -500 0 -625
68 -522 270 -960 634 -1376 199 -228 560 -488 819 -590 28 -11 70 -28 92 -38
306 -139 834 -224 1186 -192 530 48 968 216 1385 531 184 140 475 475 581 670
10 19 24 42 31 50 24 31 127 248 160 339 104 281 165 573 179 851 11 220 -22
496 -86 725 -34 119 -50 150 -50 95 0 -36 19 -81 21 -50 1 14 15 -23 22 -60 2
-8 9 -33 15 -55 14 -53 12 -115 -5 -115 -7 0 -13 11 -13 26 0 23 -20 54 -34
54 -3 0 -6 -11 -6 -25 0 -14 -4 -25 -10 -25 -5 0 -10 5 -10 10 0 6 -4 10 -10
10 -5 0 -11 -28 -11 -62 -2 -58 -2 -60 -9 -23 -4 22 -8 32 -9 23 0 -9 -6 -20
-13 -24 -8 -5 -9 -2 -5 9 5 14 -7 64 -39 166 -2 8 -7 12 -10 9 -2 -3 4 -39 15
-79 49 -181 55 -242 55 -514 0 -277 -7 -342 -60 -555 -31 -127 -63 -221 -131
-390 -19 -48 -71 -140 -78 -140 -3 0 5 18 16 40 12 23 19 43 16 46 -3 3 -13
-8 -22 -25 -20 -39 -26 -40 -15 -2 6 23 5 28 -6 27 -20 -3 -47 -44 -41 -60 5
-12 -19 -40 -51 -60 -9 -6 -10 -2 0 18 6 14 18 26 25 26 8 0 11 5 8 10 -4 6 3
32 16 58 63 134 141 378 180 564 30 144 32 166 33 378 1 256 -10 349 -61 555
-83 333 -223 619 -422 867 -79 99 -288 300 -385 372 -324 239 -656 385 -1006
441 -83 14 -346 36 -385 33 -11 0 -70 -4 -132 -8z m463 -204 c259 -44 586
-164 751 -277 23 -16 44 -29 47 -29 9 0 143 -97 201 -144 288 -237 526 -577
628 -896 89 -283 111 -411 110 -660 -1 -546 -171 -980 -541 -1388 -176 -193
-441 -379 -697 -487 -77 -32 -281 -93 -380 -113 -281 -58 -645 -50 -912 19
-335 87 -678 264 -883 455 -25 23 -58 53 -74 65 -50 39 -215 240 -288 349
-136 205 -238 454 -295 720 -26 117 -27 141 -28 385 0 292 6 341 76 573 136
458 452 880 845 1128 273 172 625 291 944 318 92 8 408 -4 496 -18z m-2280
-493 c-10 -10 -19 5 -10 18 6 11 8 11 12 0 2 -7 1 -15 -2 -18z m-36 3 c0 -2
-8 -10 -17 -17 -16 -13 -17 -12 -4 4 13 16 21 21 21 13z m150 -46 c0 -5 -4
-10 -10 -10 -5 0 -10 5 -10 10 0 6 5 10 10 10 6 0 10 -4 10 -10z m-242 -95 c0
-30 -9 -37 -28 -23 -12 8 -12 9 3 4 11 -3 17 -1 16 7 -2 17 0 37 5 37 2 0 4
-11 4 -25z m162 0 c0 -13 -42 -45 -51 -39 -7 4 -6 -2 1 -16 10 -18 9 -21 -1
-15 -9 6 -11 3 -6 -8 4 -11 2 -14 -9 -10 -17 6 -18 20 -1 26 9 3 9 7 1 17 -9
9 -8 16 5 30 14 16 61 28 61 15z m-194 -65 c-1 -31 -11 -40 -19 -17 -5 16 3
47 13 47 4 0 7 -13 6 -30z m110 -65 c-14 -13 -26 -30 -26 -38 0 -17 -34 -50
-43 -41 -8 8 3 35 12 29 4 -2 14 11 21 30 12 30 24 40 54 44 5 0 -3 -10 -18
-24z m-217 -1735 c0 -9 -4 -8 -9 5 -5 11 -9 27 -9 35 0 9 4 8 9 -5 5 -11 9
-27 9 -35z m-19 -43 c0 -5 -4 -5 -10 -2 -5 3 -10 14 -10 23 0 15 2 15 10 2 5
-8 10 -19 10 -23z m59 0 c0 -21 -1 -21 -9 -2 -12 28 -12 37 0 30 6 -3 10 -16
9 -28z m-62 -54 c0 -10 3 -34 7 -53 5 -30 4 -29 -9 9 -8 24 -12 48 -9 52 8 13
10 11 11 -8z m4318 -432 c-6 -21 -25 -29 -25 -11 0 6 5 10 10 10 6 0 10 8 10
17 0 9 3 14 6 10 3 -3 3 -15 -1 -26z"/>
<path d="M3987 6497 c-330 -251 -529 -541 -641 -931 -69 -241 -92 -509 -62
-715 58 -392 204 -724 441 -1000 208 -244 551 -458 900 -561 199 -59 249 -65
540 -65 231 0 272 3 366 23 355 74 683 246 928 485 86 83 203 221 259 304 179
265 292 656 292 1013 0 257 -82 596 -202 834 -66 131 -201 317 -293 406 l-58
55 44 -60 c24 -33 46 -62 49 -65 17 -15 114 -157 126 -184 8 -17 23 -44 33
-61 10 -16 21 -43 25 -59 6 -26 5 -28 -9 -16 -13 11 -15 10 -9 -6 7 -18 7 -18
-15 0 -18 17 -21 17 -15 3 3 -9 10 -18 15 -18 5 -1 15 -2 22 -3 6 -1 11 -9 9
-19 -2 -9 2 -17 7 -17 6 0 8 -6 5 -14 -3 -8 -1 -17 5 -21 6 -3 11 -11 11 -17
0 -7 -6 -6 -15 2 -8 7 -15 19 -15 27 0 8 -5 11 -11 8 -6 -4 -13 2 -16 13 -3
11 -12 23 -20 26 -8 3 -11 11 -7 18 4 7 4 10 -1 6 -4 -4 -15 -2 -24 5 -8 6 13
-25 48 -70 53 -70 64 -91 68 -130 l4 -48 -66 70 c-37 39 -62 60 -56 49 6 -12
7 -24 3 -28 -3 -4 1 -4 11 0 10 3 17 1 17 -5 0 -7 -7 -14 -14 -17 -15 -6 -29
3 -66 40 -22 21 -27 42 -8 30 7 -4 8 -3 4 5 -4 6 -12 9 -17 6 -5 -4 -8 2 -6
12 3 20 15 29 25 17 4 -4 0 -4 -8 0 -8 4 -4 -1 10 -12 38 -32 36 -17 -4 25
l-36 38 7 -80 c17 -223 1 -381 -52 -490 -13 -27 -28 -61 -34 -75 -18 -45 -97
-135 -162 -184 -110 -83 -200 -117 -315 -120 -30 0 -54 -3 -54 -6 0 -3 15 -34
33 -70 45 -90 96 -125 180 -125 43 0 75 6 104 21 38 19 41 19 33 3 -28 -52
-133 -86 -217 -69 -73 13 -94 24 -146 72 -26 25 -49 43 -51 41 -2 -3 -4 2 -3
9 1 19 -26 78 -36 78 -4 0 -5 5 -2 10 3 6 1 10 -5 10 -6 0 -10 -8 -8 -17 2
-13 -3 -17 -17 -16 -10 1 -27 -7 -36 -18 -9 -10 -21 -19 -28 -19 -6 0 -11 -3
-11 -7 0 -5 -10 -13 -23 -19 -60 -30 -112 -60 -115 -66 -2 -5 -11 -8 -21 -8
-9 0 -21 -4 -26 -9 -6 -4 -57 -23 -115 -40 -168 -52 -166 -51 -176 -109 -5
-26 -12 -23 -33 11 -23 38 -67 61 -103 54 -17 -3 -14 -5 12 -6 29 -1 32 -3 17
-12 -9 -5 -21 -8 -26 -5 -5 4 -67 17 -138 31 -150 29 -248 59 -282 85 l-25 18
26 -5 c14 -3 36 1 49 7 19 10 24 10 34 -4 7 -8 15 -13 18 -9 4 3 12 1 19 -5 7
-5 54 -13 103 -18 50 -4 97 -8 105 -9 9 0 21 -4 28 -9 21 -13 122 4 122 21 0
8 6 13 13 10 6 -2 18 10 25 26 10 25 15 27 27 17 12 -10 15 -10 15 4 0 9 5 16
10 16 6 0 10 -9 10 -20 0 -11 7 -20 16 -20 8 0 12 -4 9 -10 -3 -5 -2 -10 2
-10 15 0 63 25 63 33 0 4 10 7 23 7 13 0 42 9 65 20 22 11 51 20 64 20 19 0
20 2 8 10 -11 7 -6 10 23 11 56 2 58 3 71 22 7 9 21 17 30 17 9 0 16 5 16 10
0 6 7 10 15 10 8 0 15 5 15 10 0 6 8 10 19 10 10 0 24 7 31 15 7 8 15 13 19
10 11 -6 4 76 -8 108 -6 16 -12 63 -13 105 0 42 -3 63 -5 45 -2 -17 -11 -37
-19 -43 -8 -7 -15 -31 -15 -54 -1 -39 -2 -40 -9 -11 -5 21 -8 24 -10 10 -1
-15 -3 -16 -7 -5 -3 8 -11 18 -17 22 -17 11 -78 -2 -105 -23 -13 -11 -38 -19
-56 -19 -19 0 -39 -8 -50 -20 -12 -14 -31 -20 -59 -20 -33 0 -47 -7 -78 -37
l-37 -36 -163 10 c-90 6 -183 15 -206 21 -42 9 -44 9 -40 -13 4 -21 1 -22 -54
-22 -32 0 -58 4 -58 9 0 5 5 6 10 3 11 -7 14 8 4 18 -4 4 -15 -3 -25 -14 -18
-21 -18 -20 -14 18 3 27 2 31 -3 14 -7 -23 -8 -23 -25 -7 -9 10 -17 21 -17 26
0 4 -12 11 -26 14 -39 10 -23 18 38 19 29 0 42 2 28 5 -13 2 -30 11 -38 20
-13 16 -13 16 -8 0 3 -10 1 -18 -4 -18 -6 0 -10 5 -10 11 0 6 -9 8 -21 4 -13
-5 -19 -3 -15 3 8 13 -49 36 -70 28 -14 -5 -15 -4 -4 9 8 10 9 15 1 15 -6 0
-18 -14 -27 -31 -13 -26 -13 -33 -3 -40 15 -9 14 -148 -1 -163 -5 -5 -7 10 -4
35 4 43 3 43 -6 9 -5 -19 -7 -43 -4 -52 3 -10 0 -18 -6 -18 -8 0 -10 22 -6 73
5 72 3 74 -9 5 -3 -21 -12 -38 -19 -38 -7 0 -21 -9 -31 -20 -10 -11 -23 -20
-30 -20 -21 0 -65 -56 -65 -82 0 -14 7 -42 15 -61 8 -20 15 -50 15 -67 0 -26
-4 -30 -26 -30 -18 0 -48 21 -102 70 l-76 70 -81 0 c-44 0 -85 4 -90 9 -6 5
-27 13 -47 16 -33 6 -41 3 -69 -24 -30 -30 -31 -35 -27 -94 5 -69 30 -131 62
-153 19 -12 29 -11 82 7 47 16 65 18 88 9 26 -10 28 -13 20 -48 -13 -63 -9
-86 24 -118 17 -18 35 -50 41 -75 16 -64 32 -91 71 -117 51 -34 75 -37 107
-12 50 39 91 50 188 50 155 0 333 -42 438 -102 26 -16 50 -28 53 -28 7 0 86
-62 140 -111 80 -71 125 -90 251 -106 131 -16 189 -39 199 -79 9 -36 -2 -95
-22 -113 -15 -15 -16 -12 -11 33 4 39 1 52 -15 68 -17 17 -32 19 -146 17 -74
-1 -119 -5 -107 -10 l20 -8 -20 -1 c-18 -1 -17 -2 4 -11 13 -5 26 -7 29 -4 3
3 -1 5 -9 5 -12 0 -12 2 1 10 8 5 17 5 20 1 3 -5 37 -11 75 -15 39 -3 62 -3
53 0 -27 8 -21 24 8 24 14 0 23 -4 19 -10 -3 -5 -2 -10 4 -10 5 0 11 6 14 13
3 9 7 9 20 -2 10 -7 17 -19 16 -25 0 -7 -2 -6 -6 2 -8 20 -25 14 -18 -7 6 -20
-20 -43 -65 -55 -14 -4 -34 -11 -45 -16 -75 -32 -300 -40 -425 -15 -116 22
-220 59 -220 77 0 5 -5 6 -10 3 -20 -12 -150 71 -230 146 -71 68 -148 207
-134 244 8 19 4 19 -47 -1 -38 -16 -43 -16 -75 0 -40 18 -44 19 -44 7 0 -5 9
-11 19 -14 51 -13 69 -112 35 -197 -11 -28 -15 -59 -12 -97 4 -49 3 -54 -9
-38 -18 26 -16 62 7 135 11 34 20 73 20 86 0 39 -44 78 -122 109 -72 27 -108
50 -108 67 0 25 -44 96 -69 111 -16 9 -55 38 -87 64 -31 26 -96 63 -143 83
-98 42 -137 83 -166 172 -10 30 -35 71 -57 96 -47 51 -63 87 -83 183 -26 122
-16 142 13 28 26 -96 72 -199 90 -199 11 0 44 -58 60 -104 33 -93 98 -149 200
-171 19 -4 61 -28 95 -54 34 -25 78 -56 98 -69 37 -22 52 -49 64 -110 7 -35
46 -69 66 -56 8 4 9 3 5 -4 -5 -8 2 -11 23 -8 17 2 32 -2 34 -8 2 -6 8 -7 13
-3 8 8 -20 31 -30 25 -7 -5 -56 45 -56 56 0 6 10 0 21 -14 19 -24 20 -24 9 -2
-6 13 -18 45 -26 71 -7 26 -28 61 -45 79 -27 27 -31 39 -31 78 1 25 4 55 7 65
8 24 -5 24 -96 2 -68 -16 -70 -16 -97 4 -47 34 -73 94 -73 165 0 134 75 211
173 179 18 -6 66 -13 106 -15 43 -3 83 -11 97 -20 31 -21 41 -20 24 1 -13 15
-12 15 11 2 13 -8 30 -20 38 -26 18 -17 21 -16 15 6 -7 29 25 88 68 125 33 28
41 42 50 92 5 32 16 76 24 96 l15 37 -38 7 c-130 25 -313 119 -402 208 -60 60
-147 188 -184 273 -15 34 -34 97 -42 140 -16 83 -24 274 -12 266 14 -8 9 17
-8 43 -17 25 -17 25 -31 4 -8 -11 -22 -19 -31 -18 -11 2 -25 -13 -42 -44 -14
-27 -28 -48 -32 -48 -7 0 16 45 65 130 34 58 152 211 155 201 2 -6 -4 -21 -14
-36 -9 -14 -14 -29 -10 -33 10 -9 25 17 32 58 4 19 10 37 13 40 3 3 24 28 46
55 22 28 68 78 102 113 34 34 60 62 58 62 -1 0 -46 -33 -98 -73z m-305 -499
c-8 -8 -9 -4 -5 13 4 13 8 18 11 10 2 -7 -1 -18 -6 -23z m3008 -313 c-9 -11
-16 -13 -23 -6 -7 7 -6 15 3 26 9 11 16 13 23 6 7 -7 6 -15 -3 -26z m-3201
-47 c-16 -29 -23 -15 -14 29 7 35 8 36 16 15 6 -15 5 -31 -2 -44z m3400 2 c0
-23 -1 -23 -9 -5 -5 11 -9 31 -9 45 0 23 1 23 9 5 5 -11 9 -31 9 -45z m-259
40 c0 -5 -4 -10 -10 -10 -5 0 -10 5 -10 10 0 6 5 10 10 10 6 0 10 -4 10 -10z
m94 2 c3 -5 -1 -9 -9 -9 -8 0 -12 4 -9 9 3 4 7 8 9 8 2 0 6 -4 9 -8z m23 -61
c-1 -16 -4 -27 -7 -24 -8 7 -6 62 2 57 4 -3 6 -18 5 -33z m20 -13 c-3 -8 -6
-5 -6 6 -1 11 2 17 5 13 3 -3 4 -12 1 -19z m-3316 -103 c-7 -44 -16 -107 -20
-140 l-9 -60 -1 82 c0 46 7 117 16 160 21 95 30 68 14 -42z m2296 -410 c1 -19
-3 -32 -8 -29 -11 7 -12 64 -1 64 4 0 8 -16 9 -35z m-1177 -15 c0 -5 -4 -10
-10 -10 -5 0 -10 5 -10 10 0 6 5 10 10 10 6 0 10 -4 10 -10z m60 -39 c0 -5 -9
-7 -20 -4 -11 3 -20 7 -20 9 0 2 9 4 20 4 11 0 20 -4 20 -9z m340 -101 c0 -18
-5 -30 -13 -30 -22 0 -26 11 -15 36 15 33 28 30 28 -6z m-384 -35 c6 -23 0
-45 -10 -34 -10 12 -15 59 -6 59 5 0 12 -11 16 -25z m64 -15 c0 -11 -4 -20
-10 -20 -5 0 -10 9 -10 20 0 11 5 20 10 20 6 0 10 -9 10 -20z m1891 -39 c25
-25 29 -37 28 -83 l0 -53 -15 47 c-23 75 -74 101 -153 77 -7 -2 -15 1 -18 7
-6 16 36 33 85 33 35 1 49 -5 73 -28z m-1281 9 c0 -5 -7 -10 -15 -10 -8 0 -15
5 -15 10 0 6 7 10 15 10 8 0 15 -4 15 -10z m1627 -174 c-6 -78 -26 -140 -27
-82 0 35 22 156 28 156 3 0 2 -33 -1 -74z m-236 -119 c5 -20 7 -53 4 -72 -3
-19 -7 -51 -10 -70 -3 -19 -10 -35 -14 -35 -5 0 -4 21 1 48 12 66 3 106 -43
176 -38 59 -45 77 -33 89 10 10 84 -95 95 -136z m-2086 -67 c45 -15 44 -27 0
-36 -35 -6 -75 -44 -75 -70 0 -26 -27 -14 -40 16 -13 31 -54 60 -85 60 -27 0
-16 16 24 34 22 9 43 26 46 36 4 11 11 20 16 20 5 0 9 8 9 18 0 12 11 4 35
-25 20 -23 51 -47 70 -53z m1079 -102 c24 -60 64 -93 127 -103 49 -8 43 -16
-34 -39 -61 -18 -91 -50 -104 -108 -8 -39 -15 -35 -36 17 -23 56 -67 93 -118
101 -56 9 -56 20 -2 33 54 14 108 66 119 115 13 61 18 59 48 -16z"/>
<path d="M6676 5693 c-6 -14 -5 -15 5 -6 7 7 10 15 7 18 -3 3 -9 -2 -12 -12z"/>
<path d="M3781 6178 c0 -9 -4 -25 -7 -35 -5 -17 -5 -17 6 0 6 10 9 25 7 35 -4
15 -5 15 -6 0z"/>
<path d="M6340 6145 c-6 -8 -9 -24 -5 -37 5 -18 4 -20 -4 -8 -9 12 -11 11 -11
-7 0 -12 -5 -25 -10 -28 -6 -4 -7 -11 -4 -17 5 -8 1 -9 -10 -5 -15 6 -14 3 3
-19 13 -16 21 -41 21 -64 0 -34 2 -37 25 -32 18 3 25 0 25 -11 0 -21 -17 -31
-24 -15 -3 7 -3 2 0 -11 5 -17 3 -21 -6 -16 -8 5 -11 4 -7 -2 4 -6 0 -27 -8
-47 -8 -20 -13 -36 -10 -36 3 0 14 20 24 43 11 24 36 58 57 76 27 23 32 31 18
27 -28 -8 -40 19 -16 34 14 8 15 11 3 19 -12 8 -12 12 2 26 10 9 17 23 17 30
0 19 -17 28 -22 13 -3 -7 -7 -2 -11 11 -4 17 -2 21 10 17 11 -5 14 -2 9 10 -3
8 -6 19 -6 24 0 11 -29 40 -39 40 -5 0 -14 -7 -21 -15z"/>
<path d="M3715 6100 c-3 -5 -1 -10 4 -10 6 0 11 5 11 10 0 6 -2 10 -4 10 -3 0
-8 -4 -11 -10z"/>
<path d="M6570 6094 c0 -20 11 -60 32 -116 6 -16 18 -28 27 -28 13 0 13 2 2 9
-8 5 -11 16 -8 24 3 9 -1 21 -9 27 -8 7 -14 22 -14 34 -1 11 -7 32 -15 46 -13
23 -14 24 -15 4z"/>
<path d="M6240 5930 c-10 -6 -11 -10 -2 -10 6 0 12 -12 13 -27 0 -16 3 -22 6
-15 2 6 20 12 39 12 19 0 34 5 34 10 0 6 -10 8 -22 5 -25 -6 -43 3 -49 22 -3
8 -9 9 -19 3z"/>
<path d="M6225 5880 c-3 -5 -1 -10 4 -10 6 0 11 5 11 10 0 6 -2 10 -4 10 -3 0
-8 -4 -11 -10z"/>
<path d="M6230 5840 c12 -8 13 -11 1 -19 -9 -6 -5 -8 15 -8 16 0 23 2 17 4 -7
3 -13 11 -13 19 0 8 -8 14 -17 14 -15 0 -16 -2 -3 -10z"/>
<path d="M6290 5840 c0 -5 5 -10 10 -10 6 0 10 5 10 10 0 6 -4 10 -10 10 -5 0
-10 -4 -10 -10z"/>
<path d="M6198 5799 c13 -12 71 -18 77 -9 3 6 0 10 -7 11 -64 4 -76 3 -70 -2z"/>
<path d="M5660 5358 c-73 -67 -214 -161 -305 -204 -96 -45 -245 -81 -370 -89
-117 -8 -134 -15 -128 -48 3 -14 0 -27 -5 -31 -6 -4 -8 3 -5 16 4 22 4 22 -8
3 -7 -11 -16 -23 -21 -26 -6 -3 0 -9 11 -12 25 -6 38 9 43 48 3 30 4 30 63 29
33 0 76 -1 95 -3 126 -9 323 34 450 99 135 69 163 90 208 160 33 51 52 111 34
110 -4 -1 -32 -24 -62 -52z"/>
<path d="M4520 5040 c0 -5 5 -10 11 -10 5 0 7 5 4 10 -3 6 -8 10 -11 10 -2 0
-4 -4 -4 -10z"/>
<path d="M4688 4103 c7 -3 16 -2 19 1 4 3 -2 6 -13 5 -11 0 -14 -3 -6 -6z"/>
<path d="M4758 4093 c7 -3 16 -2 19 1 4 3 -2 6 -13 5 -11 0 -14 -3 -6 -6z"/>
<path d="M4838 4073 c7 -3 16 -2 19 1 4 3 -2 6 -13 5 -11 0 -14 -3 -6 -6z"/>
<path d="M4920 4045 c46 -18 61 -18 30 0 -14 8 -34 14 -45 14 -13 0 -8 -5 15
-14z"/>
<path d="M4980 4027 c0 -3 12 -12 26 -22 15 -9 23 -12 20 -6 -7 11 -46 35 -46
28z"/>
<path d="M5131 3903 c-1 -6 4 -15 9 -18 6 -4 7 -12 3 -18 -4 -7 -8 -18 -10
-26 -1 -10 1 -11 10 -2 14 14 30 14 21 -1 -5 -7 -3 -8 6 -3 10 6 10 11 -3 20
-9 7 -14 15 -10 18 3 4 13 1 22 -5 10 -8 9 -4 -3 9 -10 13 -22 20 -26 18 -5
-3 -11 1 -13 7 -4 9 -6 10 -6 1z"/>
<path d="M5200 3851 c0 -9 30 -24 36 -18 2 1 -6 8 -16 15 -11 7 -20 8 -20 3z"/>
<path d="M5258 3813 c7 -3 16 -2 19 1 4 3 -2 6 -13 5 -11 0 -14 -3 -6 -6z"/>
<path d="M5242 3794 c8 -9 23 -14 33 -12 12 2 7 7 -16 15 -30 12 -32 11 -17
-3z"/>
<path d="M3699 6913 c-13 -16 -12 -17 4 -4 9 7 17 15 17 17 0 8 -8 3 -21 -13z"/>
<path d="M3615 6850 c-26 -28 -15 -31 14 -3 13 13 20 23 14 23 -5 0 -18 -9
-28 -20z"/>
<path d="M3545 6789 c-16 -16 -26 -29 -22 -29 5 0 22 13 40 30 18 16 28 29 22
29 -5 -1 -23 -14 -40 -30z"/>
<path d="M3469 6713 l-34 -38 38 34 c20 19 37 36 37 38 0 8 -8 0 -41 -34z"/>
<path d="M3230 6490 c0 -5 5 -10 10 -10 6 0 10 5 10 10 0 6 -4 10 -10 10 -5 0
-10 -4 -10 -10z"/>
<path d="M2505 6169 c-4 -6 -5 -12 -2 -15 2 -3 7 2 10 11 7 17 1 20 -8 4z"/>
<path d="M2551 6144 c0 -11 3 -14 6 -6 3 7 2 16 -1 19 -3 4 -6 -2 -5 -13z"/>
<path d="M7395 5745 c7 -33 12 -41 21 -33 3 4 -2 19 -11 35 l-16 28 6 -30z"/>
<path d="M2292 5458 c-31 -31 10 -75 43 -48 19 16 19 25 -1 44 -19 19 -26 20
-42 4z"/>
<path d="M2170 5140 c0 -5 5 -10 10 -10 6 0 10 5 10 10 0 6 -4 10 -10 10 -5 0
-10 -4 -10 -10z"/>
<path d="M2305 4990 c-4 -6 6 -10 22 -10 22 0 25 2 13 10 -19 12 -27 12 -35 0z"/>
<path d="M2166 4817 c3 -10 9 -15 12 -12 3 3 0 11 -7 18 -10 9 -11 8 -5 -6z"/>
<path d="M2291 4454 c0 -11 3 -14 6 -6 3 7 2 16 -1 19 -3 4 -6 -2 -5 -13z"/>
<path d="M2340 4420 c-8 -5 -10 -10 -5 -10 6 0 17 5 25 10 8 5 11 10 5 10 -5
0 -17 -5 -25 -10z"/>
<path d="M2426 4047 c-38 -27 2 -95 42 -71 24 16 28 55 6 71 -10 7 -21 13 -24
13 -3 0 -14 -6 -24 -13z"/>
<path d="M7693 3802 c-8 -5 1 -8 22 -8 21 0 30 3 22 8 -6 4 -16 8 -22 8 -5 0
-16 -4 -22 -8z"/>
<path d="M2605 3640 c-17 -19 -17 -22 -3 -36 12 -13 20 -14 37 -5 26 14 26 23
3 45 -18 15 -20 15 -37 -4z m25 -32 c0 -13 -23 -5 -28 10 -2 7 2 10 12 6 9 -3
16 -11 16 -16z"/>
<path d="M7525 3360 c-4 -14 -17 -35 -28 -47 -11 -13 -16 -23 -11 -23 5 0 16
9 24 20 18 26 24 25 54 -5 21 -21 22 -26 9 -36 -12 -10 -16 -10 -24 2 -8 10
-9 8 -4 -9 5 -18 2 -25 -14 -29 -23 -6 -25 -11 -12 -31 6 -10 14 -5 30 22 13
20 34 39 47 42 31 8 31 22 0 30 -16 4 -31 20 -44 47 -19 40 -20 40 -27 17z"/>
<path d="M2803 3328 c9 -4 26 -4 39 1 20 8 18 9 -15 9 -26 -1 -34 -4 -24 -10z"/>
<path d="M2729 3318 c-6 -21 -5 -37 2 -32 5 3 6 10 3 16 -5 7 0 9 14 6 12 -4
20 -2 16 3 -4 8 -33 13 -35 7z"/>
<path d="M2804 3303 c8 -15 -30 -37 -51 -29 -9 4 -17 -1 -20 -13 -7 -29 -62
-39 -81 -15 -14 18 -14 18 -8 -1 5 -15 4 -17 -4 -8 -9 8 -17 6 -31 -8 -10 -10
-19 -23 -19 -27 0 -5 -9 -17 -19 -27 -52 -46 -121 -252 -124 -368 l-2 -62 109
-3 c245 -6 414 81 504 259 32 63 72 232 58 246 -3 3 -16 -5 -28 -18 -28 -30
-180 -156 -228 -189 -19 -13 -37 -27 -40 -30 -10 -12 -99 -70 -108 -70 -5 0
-28 -14 -51 -31 -24 -17 -45 -29 -47 -27 -6 7 113 159 175 223 58 60 101 99
160 144 17 13 31 28 31 34 0 6 -4 6 -12 0 -7 -6 -21 -13 -32 -17 -14 -5 -17
-2 -12 9 4 12 -3 15 -32 15 -41 0 -63 -15 -55 -36 4 -10 0 -11 -21 -1 -24 11
-24 13 -9 25 14 10 15 14 3 25 -9 8 -11 9 -6 0z m103 -29 c-3 -3 -12 -4 -19
-1 -8 3 -5 6 6 6 11 1 17 -2 13 -5z"/>
<path d="M2680 3285 c-7 -8 -8 -15 -2 -15 5 0 15 7 22 15 7 8 8 15 2 15 -5 0
-15 -7 -22 -15z"/>
<path d="M7178 3053 c7 -3 16 -2 19 1 4 3 -2 6 -13 5 -11 0 -14 -3 -6 -6z"/>
<path d="M7206 3023 c-6 -14 -5 -15 5 -6 7 7 10 15 7 18 -3 3 -9 -2 -12 -12z"/>
<path d="M7167 3009 c7 -7 15 -10 18 -7 3 3 -2 9 -12 12 -14 6 -15 5 -6 -5z"/>
<path d="M6930 2831 c-14 -28 -13 -39 9 -51 43 -22 77 23 41 52 -28 23 -37 23
-50 -1z"/>
<path d="M3375 2806 c-18 -26 -11 -52 16 -67 22 -12 53 2 63 27 9 23 -20 64
-44 64 -11 0 -26 -11 -35 -24z m65 -25 c0 -6 -6 -11 -12 -11 -9 0 -8 -4 2 -10
13 -8 12 -10 -2 -10 -29 0 -33 1 -30 11 1 5 -2 9 -8 9 -16 0 -12 22 7 35 13
10 19 10 30 -1 7 -7 13 -17 13 -23z"/>
</g>
</svg>
